REM DIRINDEX 1\2,1\3
REM DIRNAME cjc133,folder01,folder02
TITLE ""
FILE "DISC1Track15.mp3" MP3
  TRACK 01 AUDIO
    TITLE "0:"
    INDEX 01 00:00:00
  TRACK 02 AUDIO
    TITLE "3:cjc133_0646"
    INDEX 01 00:00:13
  TRACK 03 AUDIO
    TITLE "0:"
    INDEX 01 00:01:17
  TRACK 04 AUDIO
    TITLE "2:cjc133_0647"
    INDEX 01 00:01:68
  TRACK 05 AUDIO
    TITLE "2:cjc133_0648"
    INDEX 01 00:05:10
  TRACK 06 AUDIO
    TITLE "2:cjc133_0649"
    INDEX 01 00:08:21
  TRACK 07 AUDIO
    TITLE "0:"
    INDEX 01 00:10:39
  TRACK 08 AUDIO
    TITLE "2:cjc133_0650"
    INDEX 01 00:11:19
  TRACK 09 AUDIO
    TITLE "2:cjc133_0651"
    INDEX 01 00:12:32
  TRACK 10 AUDIO
    TITLE "2:cjc133_0652"
    INDEX 01 00:15:48
  TRACK 11 AUDIO
    TITLE "0:"
    INDEX 01 00:17:69
  TRACK 12 AUDIO
    TITLE "2:cjc133_0653"
    INDEX 01 00:18:44
  TRACK 13 AUDIO
    TITLE "2:cjc133_0654"
    INDEX 01 00:19:63
  TRACK 14 AUDIO
    TITLE "2:cjc133_0655"
    INDEX 01 00:22:44
  TRACK 15 AUDIO
    TITLE "0:"
    INDEX 01 00:24:35
  TRACK 16 AUDIO
    TITLE "2:cjc133_0656"
    INDEX 01 00:25:09
  TRACK 17 AUDIO
    TITLE "2:cjc133_0657"
    INDEX 01 00:27:18
  TRACK 18 AUDIO
    TITLE "2:cjc133_0658"
    INDEX 01 00:30:06
  TRACK 19 AUDIO
    TITLE "0:"
    INDEX 01 00:32:13
  TRACK 20 AUDIO
    TITLE "2:cjc133_0659"
    INDEX 01 00:32:62
  TRACK 21 AUDIO
    TITLE "2:cjc133_0660"
    INDEX 01 00:35:19
  TRACK 22 AUDIO
    TITLE "2:cjc133_0661"
    INDEX 01 00:38:33
  TRACK 23 AUDIO
    TITLE "0:"
    INDEX 01 00:40:54
  TRACK 24 AUDIO
    TITLE "2:cjc133_0662"
    INDEX 01 00:41:28
  TRACK 25 AUDIO
    TITLE "2:cjc133_0663"
    INDEX 01 00:42:25
  TRACK 26 AUDIO
    TITLE "2:cjc133_0664"
    INDEX 01 00:45:61
  TRACK 27 AUDIO
    TITLE "0:"
    INDEX 01 00:48:24
  TRACK 28 AUDIO
    TITLE "2:cjc133_0665"
    INDEX 01 00:48:73
  TRACK 29 AUDIO
    TITLE "2:cjc133_0666"
    INDEX 01 00:50:60
  TRACK 30 AUDIO
    TITLE "2:cjc133_0667"
    INDEX 01 00:54:66
  TRACK 31 AUDIO
    TITLE "0:"
    INDEX 01 00:58:03
  TRACK 32 AUDIO
    TITLE "2:cjc133_0668"
    INDEX 01 00:58:56
  TRACK 33 AUDIO
    TITLE "2:cjc133_0669"
    INDEX 01 01:01:40
  TRACK 34 AUDIO
    TITLE "2:cjc133_0670"
    INDEX 01 01:04:09
  TRACK 35 AUDIO
    TITLE "0:"
    INDEX 01 01:05:56
  TRACK 36 AUDIO
    TITLE "2:cjc133_0671"
    INDEX 01 01:06:34
  TRACK 37 AUDIO
    TITLE "2:cjc133_0672"
    INDEX 01 01:08:33
  TRACK 38 AUDIO
    TITLE "2:cjc133_0673"
    INDEX 01 01:11:27
  TRACK 39 AUDIO
    TITLE "0:"
    INDEX 01 01:13:26
  TRACK 40 AUDIO
    TITLE "2:cjc133_0674"
    INDEX 01 01:14:02
  TRACK 41 AUDIO
    TITLE "2:cjc133_0675"
    INDEX 01 01:16:14
  TRACK 42 AUDIO
    TITLE "2:cjc133_0676"
    INDEX 01 01:19:07
  TRACK 43 AUDIO
    TITLE "0:"
    INDEX 01 01:21:02
  TRACK 44 AUDIO
    TITLE "2:cjc133_0677"
    INDEX 01 01:21:57
  TRACK 45 AUDIO
    TITLE "2:cjc133_0678"
    INDEX 01 01:24:00
  TRACK 46 AUDIO
    TITLE "2:cjc133_0679"
    INDEX 01 01:26:44
  TRACK 47 AUDIO
    TITLE "0:"
    INDEX 01 01:28:14
  TRACK 48 AUDIO
    TITLE "2:cjc133_0680"
    INDEX 01 01:28:65
  TRACK 49 AUDIO
    TITLE "2:cjc133_0681"
    INDEX 01 01:29:60
  TRACK 50 AUDIO
    TITLE "2:cjc133_0682"
    INDEX 01 01:32:29
  TRACK 51 AUDIO
    TITLE "0:"
    INDEX 01 01:33:74
  TRACK 52 AUDIO
    TITLE "2:cjc133_0683"
    INDEX 01 01:34:46
  TRACK 53 AUDIO
    TITLE "2:cjc133_0684"
    INDEX 01 01:35:47
  TRACK 54 AUDIO
    TITLE "2:cjc133_0685"
    INDEX 01 01:38:22
  TRACK 55 AUDIO
    TITLE "0:"
    INDEX 01 01:40:05
  TRACK 56 AUDIO
    TITLE "2:cjc133_0686"
    INDEX 01 01:40:54
  TRACK 57 AUDIO
    TITLE "2:cjc133_0687"
    INDEX 01 01:42:71
  TRACK 58 AUDIO
    TITLE "2:cjc133_0688"
    INDEX 01 01:45:47
  TRACK 59 AUDIO
    TITLE "0:"
    INDEX 01 01:47:33
  TRACK 60 AUDIO
    TITLE "2:cjc133_0689"
    INDEX 01 01:48:09
  TRACK 61 AUDIO
    TITLE "2:cjc133_0690"
    INDEX 01 01:49:43
  TRACK 62 AUDIO
    TITLE "2:cjc133_0691"
    INDEX 01 01:52:26
  TRACK 63 AUDIO
    TITLE "0:"
    INDEX 01 01:54:17
